<?xml version="1.0" encoding="UTF-8"?><svg id="Calque_2" xmlns="http://www.w3.org/2000/svg" viewBox="0 0 1332.55 241.3"><defs><style>.cls-1{fill:#ec0e1d;}.cls-2{fill:#00287a;}.cls-3{fill:#4472ee;}.cls-4{stroke:#4472ee;stroke-width:5.4px;}.cls-4,.cls-5,.cls-6{fill:none;stroke-linecap:round;stroke-miterlimit:10;}.cls-7{fill:#ea7006;}.cls-5{stroke:#ea7006;stroke-width:5.19px;}.cls-6{stroke:#ec0e1d;stroke-width:5.31px;}</style></defs><g id="Calque_1-2"><path class="cls-3" d="M228.24,29.23c-3.27-3.27-4.91-7.33-4.91-12.16s1.64-8.88,4.91-12.16c3.27-3.27,7.33-4.91,12.16-4.91s8.65,1.64,11.93,4.91c3.27,3.27,4.91,7.33,4.91,12.16s-1.64,8.89-4.91,12.16c-3.27,3.27-7.25,4.91-11.93,4.91s-8.89-1.64-12.16-4.91Z"/><rect class="cls-2" x="226.84" y="51.21" width="26.65" height="128.84"/><path class="cls-2" d="M337.78,55.07c7.87-3.98,16.64-5.96,26.3-5.96,11.38,0,21.67,2.73,30.86,8.18,9.19,5.46,16.44,13.21,21.75,23.26,5.3,10.06,7.95,21.55,7.95,34.49s-2.65,24.52-7.95,34.72c-5.3,10.21-12.59,18.16-21.86,23.85-9.28,5.69-19.52,8.53-30.75,8.53-9.98,0-18.82-1.95-26.54-5.84-7.72-3.89-13.84-8.89-18.35-14.96v18.7h-26.65V7.01h26.65v63.37c4.52-6.23,10.72-11.34,18.59-15.31ZM392.03,92.01c-3.66-6.47-8.5-11.38-14.49-14.73-6-3.35-12.43-5.03-19.29-5.03s-13.06,1.72-19.06,5.15c-6,3.43-10.83,8.42-14.49,14.96-3.67,6.55-5.5,14.26-5.5,23.15s1.83,16.64,5.5,23.26c3.66,6.63,8.49,11.65,14.49,15.08,6,3.43,12.35,5.15,19.06,5.15s13.29-1.76,19.29-5.26c6-3.51,10.83-8.61,14.49-15.31s5.5-14.5,5.5-23.38-1.83-16.56-5.5-23.03Z"/><path class="cls-2" d="M481.7,7.01v173.03h-26.65V7.01h26.65Z"/><path class="cls-7" d="M522.15,29.23c-3.27-3.27-4.91-7.33-4.91-12.16s1.64-8.88,4.91-12.16c3.27-3.27,7.33-4.91,12.16-4.91s8.65,1.64,11.93,4.91c3.27,3.27,4.91,7.33,4.91,12.16s-1.64,8.89-4.91,12.16c-3.27,3.27-7.25,4.91-11.93,4.91s-8.89-1.64-12.16-4.91Z"/><rect class="cls-2" x="520.75" y="51.21" width="26.65" height="128.84"/><path class="cls-2" d="M770.69,72.95v71.31c0,4.83,1.13,8.3,3.39,10.41,2.26,2.1,6.11,3.15,11.57,3.15h16.37v22.21h-21.05c-12,0-21.2-2.8-27.59-8.42-6.39-5.61-9.59-14.73-9.59-27.36v-71.31h-15.2v-21.75h15.2V19.17h26.89v32.03h31.33v21.75h-31.33Z"/><path class="cls-1" d="M831.95,29.23c-3.27-3.27-4.91-7.33-4.91-12.16s1.64-8.88,4.91-12.16c3.27-3.27,7.33-4.91,12.16-4.91s8.65,1.64,11.93,4.91c3.27,3.27,4.91,7.33,4.91,12.16s-1.64,8.89-4.91,12.16c-3.27,3.27-7.25,4.91-11.93,4.91s-8.89-1.64-12.16-4.91Z"/><rect class="cls-2" x="830.55" y="51.21" width="26.65" height="128.84"/><path class="cls-2" d="M895.43,80.67c5.38-9.97,12.7-17.73,21.98-23.26,9.27-5.53,19.6-8.3,30.98-8.3,9.97,0,18.82,2.03,26.54,6.08,7.72,4.06,13.68,8.97,17.89,14.73v-18.7h26.89v190.09h-26.89v-79.96c-4.21,5.77-10.29,10.68-18.24,14.73s-16.99,6.08-27.12,6.08c-11.07,0-21.16-2.84-30.28-8.53-9.12-5.69-16.37-13.64-21.75-23.85-5.38-10.21-8.07-21.78-8.07-34.72s2.69-24.39,8.07-34.37ZM987.32,92.36c-3.66-6.55-8.46-11.53-14.38-14.96-5.93-3.43-12.32-5.15-19.17-5.15s-13.25,1.68-19.17,5.03c-5.92,3.35-10.72,8.26-14.38,14.73-3.66,6.47-5.5,14.15-5.5,23.03s1.83,16.68,5.5,23.38c3.66,6.7,8.49,11.81,14.5,15.31,6,3.51,12.35,5.26,19.06,5.26s13.25-1.71,19.17-5.15c5.92-3.43,10.72-8.46,14.38-15.08,3.66-6.63,5.5-14.38,5.5-23.26s-1.84-16.6-5.5-23.15Z"/><path class="cls-2" d="M1175.43,51.21v128.84h-26.65v-15.2c-4.21,5.3-9.7,9.47-16.49,12.51-6.78,3.04-13.99,4.56-21.63,4.56-10.13,0-19.21-2.11-27.24-6.31-8.03-4.21-14.34-10.44-18.94-18.71-4.6-8.26-6.9-18.24-6.9-29.93V51.21h26.42v71.78c0,11.54,2.88,20.38,8.65,26.54,5.76,6.16,13.64,9.24,23.62,9.24s17.89-3.08,23.73-9.24c5.85-6.16,8.77-15,8.77-26.54V51.21h26.65Z"/><path class="cls-2" d="M1331.62,125.56h-98.44c.78,10.29,4.6,18.55,11.46,24.79,6.86,6.24,15.27,9.35,25.25,9.35,14.34,0,24.47-6,30.39-18h28.76c-3.9,11.85-10.95,21.55-21.16,29.11-10.21,7.56-22.88,11.34-37.99,11.34-12.32,0-23.35-2.77-33.09-8.3-9.74-5.53-17.38-13.33-22.91-23.38-5.53-10.05-8.3-21.71-8.3-34.96s2.69-24.9,8.07-34.96c5.38-10.05,12.94-17.8,22.68-23.26,9.74-5.45,20.93-8.18,33.55-8.18s22.99,2.65,32.5,7.95c9.5,5.3,16.91,12.74,22.21,22.33,5.3,9.59,7.95,20.61,7.95,33.09,0,4.83-.31,9.2-.93,13.09ZM1304.73,104.05c-.16-9.82-3.67-17.69-10.52-23.62-6.86-5.92-15.36-8.89-25.49-8.89-9.2,0-17.07,2.92-23.62,8.77-6.55,5.84-10.45,13.76-11.69,23.73h71.32Z"/><path class="cls-2" d="M667.67,68.91l8.72-11.38c-9.61-5.36-20.9-8.43-33.24-8.43-38.37,0-66.61,29.42-66.61,64.73v.47c0,18.53,7.62,35.28,20.32,47.05l16.72-21.82c-5.43-6.99-8.55-15.97-8.55-25.7v-.48c0-21.42,14.59-39.31,37.67-39.31,6.54,0,12.51,1.58,17.7,4.37l7.29-9.51"/><path class="cls-4" d="M668.27,84.01c8.68,7.23,14.2,18.14,14.2,30.33,0,21.82-17.68,39.5-39.49,39.5-8.46,0-16.3-2.67-22.73-7.2"/><path class="cls-5" d="M675.71,74.32c11.58,9.48,18.97,23.89,18.97,40.02,0,28.56-23.15,51.7-51.7,51.7-11.26,0-21.67-3.59-30.15-9.7"/><path class="cls-6" d="M682.8,65.06c14.36,11.6,23.53,29.37,23.53,49.27,0,34.99-28.36,63.36-63.35,63.36-13.92,0-26.8-4.49-37.24-12.11"/><path class="cls-2" d="M188.91,80.89c-5.33-10.1-12.61-17.89-21.85-23.37s-19.57-8.22-31-8.22c-9.71,0-18.52,1.99-26.43,5.99-7.91,3.99-14.13,9.12-18.67,15.38V7.01h-26.78v151.11c-3.07,2.78-6.8,5.29-11.16,7.55-1.71.87-7.18,3.54-9.45,4.5-10.83-32.99-24.35-67.27-35.13-100.1-4.98.26-3.27.17-8.44.43,12.63,36.94,25.14,73.52,37.72,110.33h53.24v-18.79c4.54,6.11,10.69,11.12,18.44,15.03,7.75,3.92,16.64,5.87,26.66,5.87,11.27,0,21.57-2.85,30.88-8.57,9.32-5.71,16.64-13.7,21.97-23.96,5.32-10.25,7.98-21.88,7.98-34.88s-2.66-24.54-7.98-34.64ZM164.13,139.02c-3.69,6.73-8.54,11.86-14.57,15.38-6.03,3.53-12.49,5.29-19.38,5.29s-13.11-1.72-19.14-5.17c-6.03-3.44-10.88-8.49-14.56-15.15-3.68-6.65-5.52-14.44-5.52-23.37s1.84-16.67,5.52-23.25c3.68-6.58,8.53-11.59,14.56-15.04,6.03-3.44,12.41-5.16,19.14-5.16s13.35,1.68,19.38,5.05c6.03,3.36,10.88,8.3,14.57,14.79,3.67,6.5,5.51,14.22,5.51,23.14s-1.84,16.76-5.51,23.49Z"/><path class="cls-1" d="M55.1,52.76c-.09,32.3-.18,64.66-.27,97.01h-.42c-3.21-32.21-6.42-64.43-9.65-96.88l10.34-.14Z"/><path class="cls-3" d="M45.59,161.99c-.14.05-.28.09-.43.14-8.71-30.56-17.43-61.12-26.22-91.95,3.19-.38,6.03-.71,9.33-1.1,5.77,30.98,11.55,61.94,17.32,92.91Z"/><path class="cls-7" d="M49.97,152.98c-.19.03-.38.06-.57.09-5.69-31.2-11.39-62.41-17.13-93.86l8.44-.17c3.09,31.3,6.18,62.62,9.27,93.94Z"/></g></svg>